<svg width="16" height="16" viewBox="0 0 16 16" fill="none" xmlns="http://www.w3.org/2000/svg">
<path d="M15.8711 6.51908C15.9422 6.51908 15.9999 6.57674 15.9999 6.64786V7.99995C15.9999 8.50601 15.9529 9.00081 15.8627 9.48081C15.1653 13.2092 11.8807 16.0268 7.94353 15.9997C3.52578 15.9692 -0.00976094 12.3997 2.0246e-05 7.98191C0.00973893 3.57204 3.58778 0 7.99994 0C10.1616 0 12.1229 0.857557 13.5628 2.25055C13.6148 2.30083 13.6162 2.3837 13.565 2.43483L11.6522 4.34766C11.6029 4.39691 11.5234 4.39819 11.4729 4.35016C10.5691 3.48988 9.34633 2.96173 7.99994 2.96173C5.21961 2.96173 2.98072 5.18471 2.96184 7.96498C2.94288 10.7635 5.20586 13.0381 7.99994 13.0381C10.267 13.0381 12.1844 11.5405 12.8167 9.48081H8.12872C8.05759 9.48081 7.99994 9.42315 7.99994 9.35203V6.64783C7.99994 6.57671 8.05759 6.51905 8.12872 6.51905H15.8711V6.51908Z" fill="#2196F3"/>
<path d="M15.871 6.51953H14.9053C14.9764 6.51953 15.0341 6.57719 15.0341 6.64831V8.0004C15.0341 8.50646 14.9871 9.00126 14.8969 9.48126C14.2316 13.0382 11.2114 15.7661 7.51648 15.9859C7.65785 15.9942 7.80017 15.9991 7.94348 16.0001C11.8806 16.0273 15.1653 13.2096 15.8627 9.48126C15.9528 9.00126 15.9998 8.50646 15.9998 8.0004V6.64828C15.9998 6.57719 15.9422 6.51953 15.871 6.51953Z" fill="#1E88E5"/>
<path d="M3.42351 5.89002L0.993896 4.13454C2.35695 1.66921 4.98356 0 7.99972 0C10.1614 0 12.1227 0.857557 13.5626 2.25055C13.6146 2.30083 13.616 2.3837 13.5648 2.43483L11.652 4.34766C11.6028 4.39681 11.5233 4.39835 11.4729 4.35041C10.5691 3.48998 9.34625 2.96176 7.99972 2.96176C5.97061 2.96176 4.22156 4.16125 3.42351 5.89002Z" fill="#F44336"/>
<path d="M2.72217 5.3834L3.42357 5.89018C4.152 4.31225 5.67287 3.17582 7.47567 2.98941C7.48923 2.98795 7.50226 2.98616 7.51607 2.98485C7.35742 2.96979 7.19664 2.96191 7.03401 2.96191C5.201 2.96191 3.60351 3.92825 2.72217 5.3834Z" fill="#E53935"/>
<path d="M12.5974 2.25055C12.6494 2.30083 12.6508 2.3837 12.5996 2.43486L11.047 3.98744C11.1958 4.10057 11.3382 4.22157 11.4733 4.35019C11.5237 4.39822 11.6033 4.39694 11.6526 4.34769L13.5654 2.43486C13.6165 2.3837 13.6152 2.30086 13.5632 2.25055C12.1232 0.857557 10.1619 0 8.0003 0C7.83808 0 7.67715 0.00540621 7.51733 0.0149374C9.48732 0.13228 11.2655 0.962056 12.5974 2.25055Z" fill="#E53935"/>
<path d="M13.8682 13.4366C12.4073 15.0131 10.3186 15.9998 7.99972 15.9998C4.86768 15.9998 2.15607 14.1999 0.842896 11.5777L3.32335 9.87793C4.06769 11.73 5.88111 13.038 7.99972 13.038C9.32928 13.038 10.5385 12.5229 11.4386 11.6814L13.8682 13.4366Z" fill="#4CAF50"/>
<path d="M3.32347 9.87793L2.59204 10.3791C3.44157 11.9618 5.11215 13.038 7.03404 13.038C7.19657 13.038 7.35723 13.03 7.51582 13.015C5.60805 12.8331 4.01041 11.5873 3.32347 9.87793Z" fill="#43A047"/>
<path d="M7.99987 15.9999C10.3187 15.9999 12.4074 15.0132 13.8683 13.4367L13.2732 13.0068C11.9015 14.714 9.8437 15.8465 7.51819 15.9854C7.67756 15.9949 7.83812 15.9999 7.99987 15.9999Z" fill="#43A047"/>
<path d="M2.96176 8.00018C2.96176 8.66399 3.0902 9.29789 3.3236 9.87832L0.843119 11.5781C0.303592 10.5016 0 9.28629 0 8.00018C0 6.59819 0.36056 5.28051 0.994118 4.13477L3.42373 5.89025C3.12723 6.53184 2.96176 7.24687 2.96176 8.00018Z" fill="#FFC107"/>
<path d="M2.59279 10.3799L3.32422 9.87863C3.09082 9.2982 2.96238 8.6643 2.96238 8.00049C2.96238 7.24718 3.12785 6.53216 3.42435 5.89057L2.72295 5.38379C2.26748 6.13582 2.00314 7.01828 1.9967 7.96555C1.99076 8.83911 2.20723 9.66164 2.59279 10.3799Z" fill="#FFB300"/>
</svg>
